<svg xmlns="http://www.w3.org/2000/svg" viewBox="0 0 1100 820" font-family="Segoe UI, Arial, sans-serif">
  <defs>
    <marker id="arrow" markerWidth="8" markerHeight="8" refX="6" refY="3" orient="auto">
      <path d="M0,0 L0,6 L8,3 z" fill="#555"/>
    </marker>
    <marker id="arrow-blue" markerWidth="8" markerHeight="8" refX="6" refY="3" orient="auto">
      <path d="M0,0 L0,6 L8,3 z" fill="#0078d4"/>
    </marker>
    <marker id="arrow-purple" markerWidth="8" markerHeight="8" refX="6" refY="3" orient="auto">
      <path d="M0,0 L0,6 L8,3 z" fill="#7c4dff"/>
    </marker>
  </defs>

  <!-- Background -->
  <rect width="1100" height="820" fill="#f8f9fa" rx="12"/>

  <!-- Title -->
  <text x="550" y="36" text-anchor="middle" font-size="18" font-weight="700" fill="#0f2b5b">Archon — Azure Architecture</text>
  <text x="550" y="56" text-anchor="middle" font-size="12" fill="#666">Microsoft Agents League @ AI Skills Fest 2026 · Reasoning Agents + Enterprise Agents</text>

  <!-- ── DOCUMENT INPUT STREAMS ── -->
  <rect x="20" y="80" width="200" height="160" rx="8" fill="#e8f4fd" stroke="#0078d4" stroke-width="1.5"/>
  <text x="120" y="102" text-anchor="middle" font-size="11" font-weight="700" fill="#0078d4">DOCUMENT STREAMS</text>
  <text x="120" y="118" text-anchor="middle" font-size="10" fill="#555">(4 separate payment flows)</text>

  <rect x="30" y="126" width="180" height="22" rx="4" fill="#fff" stroke="#0078d4" stroke-width="1"/>
  <text x="120" y="141" text-anchor="middle" font-size="10" fill="#333">🏦 Bank Confirmation (net pay)</text>

  <rect x="30" y="154" width="180" height="22" rx="4" fill="#fff" stroke="#0078d4" stroke-width="1"/>
  <text x="120" y="169" text-anchor="middle" font-size="10" fill="#333">📋 Payroll Register (employer cost)</text>

  <rect x="30" y="182" width="180" height="22" rx="4" fill="#fff" stroke="#0078d4" stroke-width="1"/>
  <text x="120" y="197" text-anchor="middle" font-size="10" fill="#333">🧾 Individual Payslips</text>

  <rect x="30" y="210" width="180" height="22" rx="4" fill="#fff" stroke="#0078d4" stroke-width="1"/>
  <text x="120" y="225" text-anchor="middle" font-size="10" fill="#333">📄 Sales Invoices / Vendor Bills</text>

  <!-- Arrow: docs → upload -->
  <line x1="220" y1="160" x2="270" y2="160" stroke="#555" stroke-width="1.5" marker-end="url(#arrow)"/>

  <!-- ── FRONTEND ── -->
  <rect x="270" y="80" width="160" height="80" rx="8" fill="#fff3e0" stroke="#f57c00" stroke-width="1.5"/>
  <text x="350" y="104" text-anchor="middle" font-size="11" font-weight="700" fill="#f57c00">React Frontend</text>
  <text x="350" y="120" text-anchor="middle" font-size="10" fill="#555">Ant Design · Recharts</text>
  <text x="350" y="136" text-anchor="middle" font-size="10" fill="#555">P&amp;L dashboard · Upload UI</text>
  <text x="350" y="150" text-anchor="middle" font-size="9" fill="#888">localhost:3000 / Azure SWA</text>

  <!-- Arrow: frontend → backend -->
  <line x1="350" y1="160" x2="350" y2="210" stroke="#555" stroke-width="1.5" marker-end="url(#arrow)"/>
  <text x="356" y="190" font-size="9" fill="#888">REST/JSON</text>

  <!-- ── BACKEND ── -->
  <rect x="270" y="210" width="160" height="90" rx="8" fill="#e8f5e9" stroke="#388e3c" stroke-width="1.5"/>
  <text x="350" y="232" text-anchor="middle" font-size="11" font-weight="700" fill="#388e3c">FastAPI Backend</text>
  <text x="350" y="248" text-anchor="middle" font-size="10" fill="#555">Azure Container Apps</text>
  <text x="350" y="264" text-anchor="middle" font-size="10" fill="#555">/upload · /jobs · /analyze</text>
  <text x="350" y="280" text-anchor="middle" font-size="10" fill="#555">/reports · /health</text>
  <text x="350" y="294" text-anchor="middle" font-size="9" fill="#388e3c">Managed Identity ✓</text>

  <!-- Arrow: backend → extraction job -->
  <line x1="270" y1="255" x2="200" y2="335" stroke="#555" stroke-width="1.5" marker-end="url(#arrow)"/>
  <text x="210" y="298" font-size="9" fill="#888">trigger job</text>

  <!-- Arrow: backend → analysis -->
  <line x1="430" y1="255" x2="510" y2="255" stroke="#555" stroke-width="1.5" marker-end="url(#arrow)"/>
  <text x="438" y="248" font-size="9" fill="#888">call endpoint</text>

  <!-- ── EXTRACTION JOB ── -->
  <rect x="20" y="310" width="200" height="160" rx="8" fill="#fce4ec" stroke="#c62828" stroke-width="1.5"/>
  <text x="120" y="332" text-anchor="middle" font-size="11" font-weight="700" fill="#c62828">Extraction Job</text>
  <text x="120" y="348" text-anchor="middle" font-size="10" fill="#555">Azure Container Apps Job</text>
  <rect x="30" y="356" width="180" height="18" rx="3" fill="#fff" stroke="#c62828" stroke-width="0.8"/>
  <text x="120" y="369" text-anchor="middle" font-size="10" fill="#333">1. Extractor (GPT-4o Vision)</text>
  <rect x="30" y="378" width="180" height="18" rx="3" fill="#fff" stroke="#c62828" stroke-width="0.8"/>
  <text x="120" y="391" text-anchor="middle" font-size="10" fill="#333">2. ClassifierAgent</text>
  <rect x="30" y="400" width="180" height="18" rx="3" fill="#fff" stroke="#c62828" stroke-width="0.8"/>
  <text x="120" y="413" text-anchor="middle" font-size="10" fill="#333">3. EventLinkerAgent ★</text>
  <rect x="30" y="422" width="180" height="18" rx="3" fill="#fff" stroke="#c62828" stroke-width="0.8"/>
  <text x="120" y="435" text-anchor="middle" font-size="10" fill="#333">4. ValidatorAgent</text>
  <text x="120" y="460" text-anchor="middle" font-size="9" fill="#c62828">Correlates 4 document streams</text>

  <!-- Arrow: extraction → blob -->
  <line x1="120" y1="470" x2="120" y2="570" stroke="#555" stroke-width="1.5" marker-end="url(#arrow)"/>

  <!-- ── ANALYSIS ENDPOINT ── -->
  <rect x="510" y="80" width="200" height="340" rx="8" fill="#ede7f6" stroke="#512da8" stroke-width="1.5"/>
  <text x="610" y="104" text-anchor="middle" font-size="11" font-weight="700" fill="#512da8">Analysis Endpoint</text>
  <text x="610" y="120" text-anchor="middle" font-size="10" fill="#555">Azure Container Apps (always-on)</text>

  <rect x="520" y="130" width="180" height="18" rx="3" fill="#fff" stroke="#512da8" stroke-width="0.8"/>
  <text x="610" y="143" text-anchor="middle" font-size="10" fill="#333">1. ClassifierAgent</text>
  <rect x="520" y="152" width="180" height="18" rx="3" fill="#fff" stroke="#512da8" stroke-width="0.8"/>
  <text x="610" y="165" text-anchor="middle" font-size="10" fill="#333">2. PnLAgent (employer cost)</text>
  <rect x="520" y="174" width="180" height="18" rx="3" fill="#fff" stroke="#512da8" stroke-width="0.8"/>
  <text x="610" y="187" text-anchor="middle" font-size="10" fill="#333">3. CashFlowAgent (bank transfers)</text>
  <rect x="520" y="196" width="180" height="18" rx="3" fill="#fff" stroke="#512da8" stroke-width="0.8"/>
  <text x="610" y="209" text-anchor="middle" font-size="10" fill="#333">4. EmployeeAgent (payslips)</text>
  <rect x="520" y="218" width="180" height="18" rx="3" fill="#fff" stroke="#512da8" stroke-width="0.8"/>
  <text x="610" y="231" text-anchor="middle" font-size="10" fill="#333">5. ReconciliationAgent</text>
  <rect x="520" y="240" width="180" height="18" rx="3" fill="#fff" stroke="#512da8" stroke-width="0.8"/>
  <text x="610" y="253" text-anchor="middle" font-size="10" fill="#333">6. ValidatorAgent (R1–R4 rules)</text>
  <rect x="520" y="262" width="180" height="50" rx="3" fill="#e8d5ff" stroke="#7c4dff" stroke-width="1.5"/>
  <text x="610" y="279" text-anchor="middle" font-size="10" font-weight="700" fill="#5e35b1">7. NarratorAgent ✦ Foundry IQ</text>
  <text x="610" y="293" text-anchor="middle" font-size="9" fill="#5e35b1">azure-ai-projects SDK b10</text>
  <text x="610" y="307" text-anchor="middle" font-size="9" fill="#5e35b1">AzureAISearchTool · grounded</text>

  <text x="610" y="336" text-anchor="middle" font-size="9" fill="#512da8">Managed Identity ✓</text>
  <text x="610" y="350" text-anchor="middle" font-size="9" fill="#512da8">Key Vault secrets ✓</text>
  <text x="610" y="364" text-anchor="middle" font-size="9" fill="#512da8">Application Insights ✓</text>
  <text x="610" y="378" text-anchor="middle" font-size="9" fill="#512da8">Tenacity retry (3×) ✓</text>
  <text x="610" y="398" text-anchor="middle" font-size="9" fill="#512da8">23/23 e2e checks passing</text>

  <!-- Arrow: analysis → blob (read) -->
  <line x1="510" y1="330" x2="380" y2="560" stroke="#7c4dff" stroke-width="1.5" stroke-dasharray="5,3" marker-end="url(#arrow-purple)"/>

  <!-- Arrow: narrator → Foundry -->
  <line x1="710" y1="287" x2="780" y2="287" stroke="#7c4dff" stroke-width="1.5" marker-end="url(#arrow-purple)"/>

  <!-- ── FOUNDRY IQ ── -->
  <rect x="780" y="200" width="290" height="230" rx="8" fill="#f3e5f5" stroke="#7c4dff" stroke-width="2"/>
  <text x="925" y="224" text-anchor="middle" font-size="12" font-weight="700" fill="#5e35b1">✦ FOUNDRY IQ</text>
  <text x="925" y="242" text-anchor="middle" font-size="10" fill="#7c4dff">Azure AI Foundry (azure-ai-projects)</text>

  <rect x="790" y="252" width="270" height="40" rx="4" fill="#fff" stroke="#7c4dff" stroke-width="1"/>
  <text x="925" y="268" text-anchor="middle" font-size="10" font-weight="600" fill="#5e35b1">Azure AI Foundry Agent Runtime</text>
  <text x="925" y="284" text-anchor="middle" font-size="9" fill="#555">AIProjectClient · create_agent · ephemeral per-request</text>

  <rect x="790" y="300" width="270" height="40" rx="4" fill="#fff" stroke="#7c4dff" stroke-width="1"/>
  <text x="925" y="316" text-anchor="middle" font-size="10" font-weight="600" fill="#5e35b1">AzureAISearchTool</text>
  <text x="925" y="332" text-anchor="middle" font-size="9" fill="#555">archon-knowledge index · semantic search · top_k=3</text>

  <rect x="790" y="348" width="270" height="60" rx="4" fill="#fff" stroke="#0078d4" stroke-width="1"/>
  <text x="925" y="365" text-anchor="middle" font-size="10" font-weight="600" fill="#0078d4">archon-knowledge (AI Search index)</text>
  <text x="925" y="381" text-anchor="middle" font-size="9" fill="#555">IFRS/IAS 1/IAS 19 · Law 4387/2016 (EFKA)</text>
  <text x="925" y="397" text-anchor="middle" font-size="9" fill="#555">Greek VAT N.2859/2000 · Payroll rate tables</text>

  <text x="925" y="420" text-anchor="middle" font-size="9" fill="#7c4dff">→ regulation-cited executive summary</text>

  <!-- ── AZURE OPENAI ── -->
  <rect x="780" y="80" width="290" height="100" rx="8" fill="#e3f2fd" stroke="#0078d4" stroke-width="1.5"/>
  <text x="925" y="104" text-anchor="middle" font-size="11" font-weight="700" fill="#0078d4">Azure OpenAI</text>
  <text x="925" y="120" text-anchor="middle" font-size="10" fill="#555">GPT-4o · swedencentral</text>
  <text x="925" y="136" text-anchor="middle" font-size="9" fill="#555">Vision deployment — document extraction</text>
  <text x="925" y="152" text-anchor="middle" font-size="9" fill="#555">Analysis deployment — Foundry agent model</text>
  <text x="925" y="168" text-anchor="middle" font-size="9" fill="#0078d4">Standard 10K TPM · archon-openai connection</text>

  <!-- Arrow: analysis → openai -->
  <line x1="710" y1="140" x2="780" y2="140" stroke="#0078d4" stroke-width="1.5" marker-end="url(#arrow-blue)"/>

  <!-- ── AZURE STORAGE ── -->
  <rect x="270" y="570" width="360" height="80" rx="8" fill="#e0f7fa" stroke="#00838f" stroke-width="1.5"/>
  <text x="450" y="594" text-anchor="middle" font-size="11" font-weight="700" fill="#00838f">Azure Blob Storage</text>
  <text x="450" y="612" text-anchor="middle" font-size="10" fill="#555">raw-docs/  ·  extracted/{period}/  ·  reports/{period}/</text>
  <text x="450" y="630" text-anchor="middle" font-size="10" fill="#555">documents.json  ·  events.json  ·  report.json</text>
  <text x="450" y="644" text-anchor="middle" font-size="9" fill="#00838f">Key Vault secret · Standard_LRS · TLS 1.2</text>

  <!-- Arrow: backend → storage (write) -->
  <line x1="350" y1="300" x2="350" y2="570" stroke="#00838f" stroke-width="1" stroke-dasharray="4,3" marker-end="url(#arrow)"/>

  <!-- Arrow: extraction → storage -->
  <line x1="220" y1="420" x2="320" y2="580" stroke="#00838f" stroke-width="1" stroke-dasharray="4,3" marker-end="url(#arrow)"/>

  <!-- ── POSTGRESQL ── -->
  <rect x="270" y="670" width="360" height="70" rx="8" fill="#fafafa" stroke="#455a64" stroke-width="1.5"/>
  <text x="450" y="694" text-anchor="middle" font-size="11" font-weight="700" fill="#455a64">Azure Database for PostgreSQL</text>
  <text x="450" y="712" text-anchor="middle" font-size="10" fill="#555">documents · employees · payroll_events · validation_results</text>
  <text x="450" y="728" text-anchor="middle" font-size="9" fill="#455a64">Flexible Server · Standard_B2ms · pg-url from Key Vault</text>

  <!-- Arrow: storage → postgres -->
  <line x1="450" y1="650" x2="450" y2="670" stroke="#455a64" stroke-width="1.5" marker-end="url(#arrow)"/>

  <!-- ── KEY VAULT ── -->
  <rect x="660" y="570" width="160" height="80" rx="8" fill="#fff8e1" stroke="#f57f17" stroke-width="1.5"/>
  <text x="740" y="594" text-anchor="middle" font-size="11" font-weight="700" fill="#f57f17">Key Vault</text>
  <text x="740" y="610" text-anchor="middle" font-size="9" fill="#555">openai-key · pg-url</text>
  <text x="740" y="624" text-anchor="middle" font-size="9" fill="#555">storage-conn · search-key</text>
  <text x="740" y="638" text-anchor="middle" font-size="9" fill="#555">foundry-conn</text>
  <text x="740" y="652" text-anchor="middle" font-size="9" fill="#f57f17">Access policy mode</text>

  <!-- Arrow: analysis → keyvault -->
  <line x1="610" y1="420" x2="700" y2="570" stroke="#f57f17" stroke-width="1" stroke-dasharray="4,3" marker-end="url(#arrow)"/>

  <!-- ── M365 COPILOT ── -->
  <rect x="860" y="460" width="210" height="120" rx="8" fill="#e8eaf6" stroke="#3949ab" stroke-width="1.5"/>
  <text x="965" y="484" text-anchor="middle" font-size="11" font-weight="700" fill="#3949ab">M365 Copilot Agent</text>
  <text x="965" y="500" text-anchor="middle" font-size="10" fill="#555">Enterprise Agents Track</text>
  <rect x="870" y="508" width="190" height="30" rx="4" fill="#fff" stroke="#3949ab" stroke-width="1"/>
  <text x="965" y="521" text-anchor="middle" font-size="9" fill="#333">Declarative agent (teams-manifest.json)</text>
  <text x="965" y="533" text-anchor="middle" font-size="9" fill="#333">OpenAPI plugin → FastAPI backend</text>
  <text x="965" y="555" text-anchor="middle" font-size="9" fill="#555">Conversation starters:</text>
  <text x="965" y="569" text-anchor="middle" font-size="9" fill="#3949ab">"What is our true payroll cost?"</text>

  <!-- Arrow: M365 → backend -->
  <line x1="860" y1="520" x2="430" y2="280" stroke="#3949ab" stroke-width="1.5" stroke-dasharray="6,3" marker-end="url(#arrow)"/>

  <!-- ── APP INSIGHTS ── -->
  <rect x="660" y="670" width="160" height="60" rx="8" fill="#f9fbe7" stroke="#827717" stroke-width="1.5"/>
  <text x="740" y="694" text-anchor="middle" font-size="11" font-weight="700" fill="#827717">App Insights</text>
  <text x="740" y="710" text-anchor="middle" font-size="9" fill="#555">OpenTelemetry · distributed traces</text>
  <text x="740" y="724" text-anchor="middle" font-size="9" fill="#555">→ Log Analytics workspace</text>

  <!-- Legend -->
  <rect x="20" y="770" width="1060" height="36" rx="6" fill="#fff" stroke="#ddd" stroke-width="1"/>
  <text x="40" y="792" font-size="10" fill="#7c4dff">— — Foundry IQ path</text>
  <text x="200" y="792" font-size="10" fill="#3949ab">- - M365 Copilot path</text>
  <text x="370" y="792" font-size="10" fill="#00838f">- - Storage read/write</text>
  <text x="540" y="792" font-size="10" fill="#555">★ EventLinker = 4-stream correlation</text>
  <text x="760" y="792" font-size="10" fill="#7c4dff">✦ NarratorAgent = Foundry IQ (Best Use of IQ Tools)</text>
</svg>
